<svg xmlns="http://www.w3.org/2000/svg" width="1600" height="1060" viewBox="0 0 1600 1060" role="img" aria-labelledby="title desc">
<title id="title">Homepage System Architecture</title>
<desc id="desc">Diagram showing browser requests entering Nginx, direct static and upload serving, application requests proxied to gunicorn uvicorn workers, and the FastAPI app rendering Jinja2 templates from Markdown content.</desc>

<defs>
  <linearGradient id="bg" x1="0" y1="0" x2="1" y2="1">
    <stop offset="0%" stop-color="#f8fafc"/>
    <stop offset="52%" stop-color="#eef6ff"/>
    <stop offset="100%" stop-color="#f7fee7"/>
  </linearGradient>
  <filter id="shadow" x="-12%" y="-18%" width="124%" height="136%">
    <feDropShadow dx="0" dy="12" stdDeviation="16" flood-color="#0f172a" flood-opacity=".12"/>
  </filter>
  <marker id="arrow" markerWidth="12" markerHeight="12" refX="10" refY="6" orient="auto" markerUnits="strokeWidth">
    <path d="M2 2 L10 6 L2 10 Z" fill="#334155"/>
  </marker>
  <marker id="arrowMuted" markerWidth="12" markerHeight="12" refX="10" refY="6" orient="auto" markerUnits="strokeWidth">
    <path d="M2 2 L10 6 L2 10 Z" fill="#64748b"/>
  </marker>
</defs>

<style>
  .title { fill: #0f172a; font-family: Inter, ui-sans-serif, system-ui, -apple-system, BlinkMacSystemFont, Segoe UI, sans-serif; font-size: 44px; font-weight: 800; }
  .subtitle { fill: #475569; font-family: Inter, ui-sans-serif, system-ui, -apple-system, BlinkMacSystemFont, Segoe UI, sans-serif; font-size: 20px; font-weight: 500; }
  .label { fill: #0f172a; font-family: Inter, ui-sans-serif, system-ui, -apple-system, BlinkMacSystemFont, Segoe UI, sans-serif; font-size: 24px; font-weight: 750; }
  .small { fill: #475569; font-family: Inter, ui-sans-serif, system-ui, -apple-system, BlinkMacSystemFont, Segoe UI, sans-serif; font-size: 17px; font-weight: 500; }
  .tiny { fill: #64748b; font-family: Inter, ui-sans-serif, system-ui, -apple-system, BlinkMacSystemFont, Segoe UI, sans-serif; font-size: 14px; font-weight: 600; }
  .mono { fill: #334155; font-family: ui-monospace, SFMono-Regular, Menlo, Monaco, Consolas, Liberation Mono, monospace; font-size: 15px; font-weight: 650; }
  .box { fill: #ffffff; stroke: #cbd5e1; stroke-width: 2; filter: url(#shadow); }
  .box-soft { fill: #f8fafc; stroke: #dbe3ee; stroke-width: 2; }
  .accent-blue { fill: #2563eb; }
  .accent-cyan { fill: #0891b2; }
  .accent-green { fill: #16a34a; }
  .accent-amber { fill: #d97706; }
  .accent-rose { fill: #e11d48; }
  .chip { fill: #eff6ff; stroke: #bfdbfe; stroke-width: 1.4; }
  .chip-text { fill: #1d4ed8; font-family: Inter, ui-sans-serif, system-ui, -apple-system, BlinkMacSystemFont, Segoe UI, sans-serif; font-size: 14px; font-weight: 700; }
  .arrow { stroke: #334155; stroke-width: 3.2; fill: none; marker-end: url(#arrow); }
  .arrow-muted { stroke: #64748b; stroke-width: 2.6; fill: none; marker-end: url(#arrowMuted); stroke-dasharray: 8 8; }
  .line-label { fill: #475569; font-family: Inter, ui-sans-serif, system-ui, -apple-system, BlinkMacSystemFont, Segoe UI, sans-serif; font-size: 14px; font-weight: 700; }
</style>
<rect fill="url(#bg)" x="0" y="0" width="1600" height="1060" rx="32"/>
<text class="title" x="72" y="72">Homepage System Architecture</text>
<text class="subtitle" x="74" y="108">Production path after removing Next.js: Nginx, gunicorn, FastAPI, Jinja2, vanilla JS, Markdown files.</text>
<rect class="box" x="80" y="170" width="290" height="140" rx="26"/>
<rect class="accent-blue" x="102" y="192" width="74" height="8" rx="4"/>
<text class="label" x="102" y="235">Browser</text>
<text class="small" x="102" y="268">Fully rendered HTML</text>
<text class="small" x="102" y="293">Deferred vanilla JS</text>
<rect class="box" x="520" y="145" width="560" height="185" rx="26"/>
<rect class="accent-cyan" x="542" y="167" width="74" height="8" rx="4"/>
<text class="label" x="542" y="210">Nginx</text>
<text class="small" x="542" y="243">TLS termination on 443</text>
<text class="small" x="542" y="268">gzip_static, HSTS, security headers</text>
<rect class="chip" x="560" y="280" width="142" height="31" rx="15.5"/>
<text class="chip-text" x="576" y="301">/static/* direct</text>
<rect class="chip" x="734" y="280" width="158" height="31" rx="15.5"/>
<text class="chip-text" x="750" y="301">/uploads/* auth</text>
<rect class="chip" x="922" y="280" width="162" height="31" rx="15.5"/>
<text class="chip-text" x="938" y="301">/* and /api/* proxy</text>
<path class="arrow" d="M370 240 C440 240 452 236 520 236"/>
<text class="line-label" x="414" y="222">HTTPS</text>
<rect class="box" x="80" y="430" width="360" height="165" rx="26"/>
<rect class="accent-green" x="102" y="452" width="74" height="8" rx="4"/>
<text class="label" x="102" y="495">Static assets</text>
<text class="small" x="102" y="528">CSS and JS from static/</text>
<text class="small" x="102" y="553">1-year cache for fingerprinted URLs</text>
<text class="small" x="102" y="578">Never touches Python</text>
<rect class="box" x="620" y="430" width="360" height="165" rx="26"/>
<rect class="accent-amber" x="642" y="452" width="74" height="8" rx="4"/>
<text class="label" x="642" y="495">Uploaded files</text>
<text class="small" x="642" y="528">Gallery images and documents</text>
<text class="small" x="642" y="553">FastAPI access decision</text>
<text class="small" x="642" y="578">Bytes via internal Nginx alias</text>
<rect class="box" x="1100" y="405" width="380" height="190" rx="26"/>
<rect class="accent-rose" x="1122" y="427" width="74" height="8" rx="4"/>
<text class="label" x="1122" y="470">Application traffic</text>
<text class="small" x="1122" y="503">proxy_pass 127.0.0.1:8000</text>
<text class="small" x="1122" y="528">HTML, JSON, and media auth</text>
<text class="small" x="1122" y="553">Rate limited with burst=60</text>
<path class="arrow" d="M645 330 C555 370 420 380 280 430"/>
<path class="arrow" d="M806 330 C820 376 815 396 800 430"/>
<path class="arrow" d="M990 330 C1130 354 1238 360 1290 405"/>
<rect class="box" x="170" y="725" width="1260" height="255" rx="26"/>
<rect class="accent-blue" x="202" y="758" width="92" height="8" rx="4"/>
<text class="label" x="202" y="804">Single FastAPI process under systemd</text>
<text class="small" x="202" y="839">gunicorn preloads app.main:app and starts 1 uvicorn worker</text>
<text class="small" x="202" y="864">One runtime serves public pages, admin pages, JSON APIs, upload logic, and Markdown parsing</text>
<path class="arrow" d="M1290 595 C1290 660 1150 690 1000 725"/>
<rect class="box-soft" x="210" y="890" width="275" height="64" rx="18"/>
<text class="mono" x="234" y="917">routers/pages.py</text>
<text class="tiny" x="234" y="941">HTML routes + /api/site/*</text>
<rect class="box-soft" x="505" y="890" width="275" height="64" rx="18"/>
<text class="mono" x="529" y="917">Jinja2 templates</text>
<text class="tiny" x="529" y="941">server-rendered pages</text>
<rect class="box-soft" x="800" y="890" width="275" height="64" rx="18"/>
<text class="mono" x="824" y="917">content/*.md</text>
<text class="tiny" x="824" y="941">Markdown is the database</text>
<rect class="box-soft" x="1095" y="890" width="295" height="64" rx="18"/>
<text class="mono" x="1119" y="917">cache + auth + uploads</text>
<text class="tiny" x="1119" y="941">signature cache, bcrypt, files</text>
</svg>
